<?xml version="1.0" encoding="UTF-8" standalone="no"?>
<!-- Created with Inkscape (http://www.inkscape.org/) -->

<svg
   xmlns:dc="http://purl.org/dc/elements/1.1/"
   xmlns:cc="http://creativecommons.org/ns#"
   xmlns:rdf="http://www.w3.org/1999/02/22-rdf-syntax-ns#"
   xmlns:svg="http://www.w3.org/2000/svg"
   xmlns="http://www.w3.org/2000/svg"
   xmlns:xlink="http://www.w3.org/1999/xlink"
   xmlns:sodipodi="http://sodipodi.sourceforge.net/DTD/sodipodi-0.dtd"
   xmlns:inkscape="http://www.inkscape.org/namespaces/inkscape"
   width="499.99997"
   height="249.99995"
   viewBox="0 0 132.29165 66.145824"
   version="1.1"
   id="svg8"
   sodipodi:docname="branding.svg"
   inkscape:export-filename="/home/b/.themes/Adapta-Nokto-Eta-Breath3/gnome-shell/branding.png"
   inkscape:export-xdpi="96"
   inkscape:export-ydpi="96"
   inkscape:version="0.92.2 2405546, 2018-03-11">
  <defs
     id="defs2">
    <linearGradient
       y2="28.426884"
       x1="34.76569"
       x2="25.431995"
       y1="9.90843"
       id="lg"
       gradientTransform="scale(0.9319351,1.0730361)"
       gradientUnits="userSpaceOnUse">
      <stop
         id="stop831"
         offset="0"
         stop-opacity="0"
         stop-color="#fff" />
      <stop
         id="stop833"
         offset="1"
         stop-opacity=".27451"
         stop-color="#fff" />
    </linearGradient>
    <linearGradient
       inkscape:collect="always"
       xlink:href="#lg"
       id="linearGradient877"
       gradientUnits="userSpaceOnUse"
       gradientTransform="scale(0.9319351,1.0730361)"
       x1="34.76569"
       y1="9.90843"
       x2="25.431995"
       y2="28.426884" />
    <linearGradient
       inkscape:collect="always"
       xlink:href="#lg"
       id="linearGradient887"
       gradientUnits="userSpaceOnUse"
       gradientTransform="scale(0.9319351,1.0730361)"
       x1="34.76569"
       y1="9.90843"
       x2="25.431995"
       y2="28.426884" />
    <linearGradient
       inkscape:collect="always"
       xlink:href="#lg"
       id="linearGradient897"
       gradientUnits="userSpaceOnUse"
       gradientTransform="scale(0.9319351,1.0730361)"
       x1="34.76569"
       y1="9.90843"
       x2="25.431995"
       y2="28.426884" />
    <linearGradient
       inkscape:collect="always"
       xlink:href="#lg"
       id="linearGradient907"
       gradientUnits="userSpaceOnUse"
       gradientTransform="scale(0.9319351,1.0730361)"
       x1="34.76569"
       y1="9.90843"
       x2="25.431995"
       y2="28.426884" />
    <linearGradient
       inkscape:collect="always"
       xlink:href="#lg"
       id="linearGradient917"
       gradientUnits="userSpaceOnUse"
       gradientTransform="scale(0.9319351,1.0730361)"
       x1="34.76569"
       y1="9.90843"
       x2="25.431995"
       y2="28.426884" />
    <linearGradient
       inkscape:collect="always"
       xlink:href="#lg"
       id="linearGradient928"
       gradientUnits="userSpaceOnUse"
       gradientTransform="scale(0.9319351,1.0730361)"
       x1="34.76569"
       y1="9.90843"
       x2="25.431995"
       y2="28.426884" />
    <linearGradient
       inkscape:collect="always"
       xlink:href="#lg"
       id="linearGradient938"
       gradientUnits="userSpaceOnUse"
       gradientTransform="scale(0.9319351,1.0730361)"
       x1="34.76569"
       y1="9.90843"
       x2="25.431995"
       y2="28.426884" />
  </defs>
  <sodipodi:namedview
     id="base"
     pagecolor="#ffffff"
     bordercolor="#666666"
     borderopacity="1.0"
     inkscape:pageopacity="0.0"
     inkscape:pageshadow="2"
     inkscape:zoom="2.0000001"
     inkscape:cx="321.46852"
     inkscape:cy="90.365921"
     inkscape:document-units="mm"
     inkscape:current-layer="layer1"
     showgrid="false"
     units="px"
     inkscape:window-width="1904"
     inkscape:window-height="972"
     inkscape:window-x="0"
     inkscape:window-y="0"
     inkscape:window-maximized="1" />
  <metadata
     id="metadata5">
    <rdf:RDF>
      <cc:Work
         rdf:about="">
        <dc:format>image/svg+xml</dc:format>
        <dc:type
           rdf:resource="http://purl.org/dc/dcmitype/StillImage" />
        <dc:title></dc:title>
      </cc:Work>
    </rdf:RDF>
  </metadata>
  <g
     inkscape:label="Layer 1"
     inkscape:groupmode="layer"
     id="layer1"
     transform="translate(0,-232.13776)">
    <path
       style="opacity:1;fill:#666666;fill-opacity:0.19607843;fill-rule:nonzero;stroke:none;stroke-width:3.42742181"
       d="M 156.25 -31.25 L 218.75 31.25 L 250 62.5 L 250 -31.25 L 156.25 -31.25 z M 250 -31.25 L 312.5 31.25 L 312.5 -31.25 L 250 -31.25 z M 218.75 31.25 L 156.25 31.25 L 187.5 62.5 L 218.75 93.75 L 218.75 31.25 z M 187.5 62.5 L 93.75 62.5 L 187.5 156.25 L 187.5 62.5 z M 62.5 0 L 62.5 31.25 L 93.75 31.25 L 62.5 0 z M 31.25 31.25 L 31.25 62.5 L 62.5 62.5 L 31.25 31.25 z M 343.75 31.25 L 406.25 93.75 L 406.25 31.25 L 343.75 31.25 z M 406.25 93.75 L 406.25 125 L 437.5 125 L 406.25 93.75 z M 343.75 93.75 L 343.75 125 L 375 125 L 343.75 93.75 z M 343.75 125 L 343.75 156.25 L 375 156.25 L 343.75 125 z M 375 156.25 L 375 187.5 L 406.25 187.5 L 375 156.25 z M 93.75 125 L 93.75 156.25 L 125 156.25 L 93.75 125 z M 125 156.25 L 156.25 156.25 L 125 125 L 125 156.25 z M 156.25 156.25 L 156.25 187.5 L 187.5 187.5 L 156.25 156.25 z M 0 156.25 L 62.5 218.75 L 62.5 156.25 L 0 156.25 z M 406.25 156.25 L 468.75 218.75 L 468.75 156.25 L 406.25 156.25 z M 468.75 218.75 L 468.75 250 L 500 250 L 468.75 218.75 z M 93.75 187.5 L 93.75 218.75 L 125 218.75 L 93.75 187.5 z M 125 218.75 L 125 250 L 156.25 250 L 125 218.75 z M 312.5 187.5 L 312.5 218.75 L 343.75 218.75 L 312.5 187.5 z M 343.75 218.75 L 375 218.75 L 343.75 187.5 L 343.75 218.75 z M 375 218.75 L 375 250 L 406.25 250 L 375 218.75 z M 406.25 250 L 437.5 250 L 406.25 218.75 L 406.25 250 z M 312.5 218.75 L 250 218.75 L 312.5 281.25 L 312.5 218.75 z M 250 218.75 L 156.25 218.75 L 250 312.5 L 250 218.75 z M 0 218.75 L 0 250 L 31.25 250 L 0 218.75 z M 31.25 250 L 62.5 250 L 31.25 218.75 L 31.25 250 z "
       transform="matrix(0.26458333,0,0,0.26458333,0,232.13776)"
       id="path919" />
    <rect
       style="opacity:0;fill:#ffffff;fill-opacity:0.19607843;stroke-width:0.33072916"
       id="rect923"
       width="132.29166"
       height="66.145821"
       x="0"
       y="232.13776" />
    <g
       transform="matrix(0.06702811,0,0,0.06702811,107.45493,237.87733)"
       id="g861"
       style="opacity:0.3">
      <path
         style="fill:#1793d1"
         inkscape:connector-curvature="0"
         d="m 176.06,0.89615 c -8.77,21.486 -14.06,35.559 -23.82,56.406 5.99,6.342 13.33,13.691 25.25,22.032 -12.82,-5.276 -21.55,-10.535 -28.09,-16.032 -12.49,26.057 -32.08,63.138 -71.781,134.47 31.201,-18.01 55.401,-29.1 77.941,-33.34 -0.97,-4.16 -1.51,-8.68 -1.47,-13.38 l 0.03,-0.97 c 0.49,-19.99 10.9,-35.38 23.22,-34.34 12.32,1.04 21.9,18.13 21.4,38.12 -0.09,3.76 -0.51,7.37 -1.25,10.72 22.29,4.37 46.24,15.43 77,33.19 -6.07,-11.17 -11.51,-21.22 -16.68,-30.81 -8.15,-6.32 -16.63,-14.54 -33.97,-23.44 11.91,3.1 20.47,6.66 27.12,10.66 -52.6,-97.938 -56.87,-110.95 -74.9,-153.28 z m 6.01,198.2 5.48,-1.35 -0.67,64.65 -5.56,0.94 z m 14.57,19.3 4.81,-2.12 -0.62,46.36 -4.63,0.95 z m -0.9,-16.72 3.9,-3.13 3.15,3.55 -3.9,3.21 z m 14.69,15.87 5.47,-1.1 -0.11,9.69 c 0,0.42 3.15,-10.83 17.61,-10.58 14.03,0.08 16.18,10.88 16.06,13.3 l -0.31,34.08 -4.8,1.03 0.45,-33.66 c 0.07,-0.98 -2.05,-9.29 -11.97,-9.32 -9.92,-0.03 -16.89,7.16 -16.94,11.75 l -0.35,29.65 -5.56,1.44 z m 86.36,45.64 -5.48,1.1 0.12,-9.69 c 0,-0.41 -3.16,10.83 -17.61,10.58 -14.03,-0.08 -16.18,-10.88 -16.07,-13.3 l 0.32,-34.08 5.81,-1.16 -0.39,33.66 c -0.01,0.92 0.98,9.43 10.9,9.46 9.91,0.03 16.95,-5.94 17.12,-14.92 l 0.31,-26.56 5.42,-1.37 z m 11.35,-46.02 -3.87,2.98 14.41,19.09 -15.97,22.06 4.02,2.99 15.01,-20.48 14.89,20.97 3.8,-2.98 -15.96,-22.42 13.24,-18.13 -3.94,-3.36 -12.07,16.78 z m 39.47,43.04 v -4.13 h -1.53 v -0.55 h 3.68 v 0.55 h -1.53 v 4.13 z m 2.79,0 v -4.68 h 0.93 l 1.09,3.31 c 0.11,0.31 0.18,0.54 0.22,0.69 0.06,-0.17 0.14,-0.41 0.26,-0.74 l 1.1,-3.26 h 0.83 v 4.68 h -0.59 v -3.91 l -1.35,3.91 h -0.55 l -1.35,-3.99 v 3.99 z m -78.04,-78.65 v -4.12 h -1.53 v -0.55 h 3.68 v 0.55 h -1.54 v 4.12 z m 2.47,0 v -4.67 h 0.92 l 1.1,3.31 c 0.1,0.31 0.17,0.54 0.22,0.69 0.05,-0.17 0.14,-0.41 0.25,-0.74 l 1.11,-3.26 h 0.82 v 4.67 h -0.58 v -3.91 l -1.36,3.91 h -0.55 l -1.34,-3.98 v 3.98 z"
         id="path857" />
      <path
         style="fill:#4d4d4d"
         inkscape:connector-curvature="0"
         d="m 23.108,211.92 c -6.929,-0.01 -12.68,1.41 -14.903,2.19 l -2.2892,12.36 c -0.0056,0.04 11.393,-3.04 16.413,-2.86 8.313,0.3 9.078,3.18 8.933,7.06 0.142,0.23 -2.145,-3.51 -9.336,-3.64 -9.073,-0.15 -21.878,3.22 -21.86,16.91 -0.24506,15.41 11.507,19.94 19.51,20.02 7.196,-0.13 10.571,-2.72 12.419,-4.11 2.428,-2.54 5.206,-5.09 7.855,-8.16 -2.506,4.56 -4.68,7.71 -6.942,10.12 v 2.03 l 10.937,-1.84 0.075,-29.73 c -0.111,-4.21 2.414,-20.31 -20.812,-20.35 z m -1.572,25.89 c 4.534,0.06 9.733,2.29 9.741,7.67 0.023,4.9 -6.129,7.53 -10.13,7.48 -4.002,-0.04 -9.313,-3.14 -9.336,-7.91 0.077,-4.26 5.008,-7.35 9.725,-7.24 z m 29.596,-23.14 -0.074,49.23 12.742,-2.45 0.021,-27.92 c 0.004,-4.15 5.94,-9.01 13.389,-8.93 1.581,-2.86 4.553,-10.17 5.277,-11.84 -16.642,-0.04 -16.853,4.79 -19.748,7.16 -0.03,-4.53 -0.01,-7.24 -0.01,-7.24 z m 71.708,6.46 c -0.12,-0.05 -6.64,-7.63 -19.76,-7.69 -12.28,-0.2 -26.056,4.56 -26.277,25.16 0.108,18.1 13.234,25.18 26.347,25.32 14.04,0.14 19.62,-8.78 19.96,-9 -1.68,-1.45 -7.95,-7.67 -7.95,-7.67 0,0 -3.92,5.58 -11.52,5.65 -7.603,0.08 -14.211,-5.87 -14.305,-14.17 -0.098,-8.3 6.075,-12.8 14.365,-13.16 7.17,0 11.31,4.63 11.31,4.63 z m 16.06,-23.69 -12.03,2.83 0.09,64.13 11.85,-2.14 0.14,-30.18 c 0.02,-3.17 4.57,-8.03 12.18,-7.87 7.26,0.07 8.89,4.84 8.87,5.44 l 0.21,34.94 11.68,-2.06 0.05,-37.05 c 0.07,-3.57 -7.81,-11.09 -20.49,-11.15 -6.02,0.01 -9.36,1.38 -11.05,2.38 -2.91,2.24 -6.23,4.39 -9.49,7.14 3.02,-3.88 5.55,-6.55 8.02,-8.55 z"
         id="path859" />
    </g>
    <g
       id="g867"
       transform="matrix(0.06702811,0,0,0.06702811,49.577324,270.9496)"
       style="opacity:0.3">
      <path
         id="path863"
         d="m 176.06,0.89615 c -8.77,21.486 -14.06,35.559 -23.82,56.406 5.99,6.342 13.33,13.691 25.25,22.032 -12.82,-5.276 -21.55,-10.535 -28.09,-16.032 -12.49,26.057 -32.08,63.138 -71.781,134.47 31.201,-18.01 55.401,-29.1 77.941,-33.34 -0.97,-4.16 -1.51,-8.68 -1.47,-13.38 l 0.03,-0.97 c 0.49,-19.99 10.9,-35.38 23.22,-34.34 12.32,1.04 21.9,18.13 21.4,38.12 -0.09,3.76 -0.51,7.37 -1.25,10.72 22.29,4.37 46.24,15.43 77,33.19 -6.07,-11.17 -11.51,-21.22 -16.68,-30.81 -8.15,-6.32 -16.63,-14.54 -33.97,-23.44 11.91,3.1 20.47,6.66 27.12,10.66 -52.6,-97.938 -56.87,-110.95 -74.9,-153.28 z m 6.01,198.2 5.48,-1.35 -0.67,64.65 -5.56,0.94 z m 14.57,19.3 4.81,-2.12 -0.62,46.36 -4.63,0.95 z m -0.9,-16.72 3.9,-3.13 3.15,3.55 -3.9,3.21 z m 14.69,15.87 5.47,-1.1 -0.11,9.69 c 0,0.42 3.15,-10.83 17.61,-10.58 14.03,0.08 16.18,10.88 16.06,13.3 l -0.31,34.08 -4.8,1.03 0.45,-33.66 c 0.07,-0.98 -2.05,-9.29 -11.97,-9.32 -9.92,-0.03 -16.89,7.16 -16.94,11.75 l -0.35,29.65 -5.56,1.44 z m 86.36,45.64 -5.48,1.1 0.12,-9.69 c 0,-0.41 -3.16,10.83 -17.61,10.58 -14.03,-0.08 -16.18,-10.88 -16.07,-13.3 l 0.32,-34.08 5.81,-1.16 -0.39,33.66 c -0.01,0.92 0.98,9.43 10.9,9.46 9.91,0.03 16.95,-5.94 17.12,-14.92 l 0.31,-26.56 5.42,-1.37 z m 11.35,-46.02 -3.87,2.98 14.41,19.09 -15.97,22.06 4.02,2.99 15.01,-20.48 14.89,20.97 3.8,-2.98 -15.96,-22.42 13.24,-18.13 -3.94,-3.36 -12.07,16.78 z m 39.47,43.04 v -4.13 h -1.53 v -0.55 h 3.68 v 0.55 h -1.53 v 4.13 z m 2.79,0 v -4.68 h 0.93 l 1.09,3.31 c 0.11,0.31 0.18,0.54 0.22,0.69 0.06,-0.17 0.14,-0.41 0.26,-0.74 l 1.1,-3.26 h 0.83 v 4.68 h -0.59 v -3.91 l -1.35,3.91 h -0.55 l -1.35,-3.99 v 3.99 z m -78.04,-78.65 v -4.12 h -1.53 v -0.55 h 3.68 v 0.55 h -1.54 v 4.12 z m 2.47,0 v -4.67 h 0.92 l 1.1,3.31 c 0.1,0.31 0.17,0.54 0.22,0.69 0.05,-0.17 0.14,-0.41 0.25,-0.74 l 1.11,-3.26 h 0.82 v 4.67 h -0.58 v -3.91 l -1.36,3.91 h -0.55 l -1.34,-3.98 v 3.98 z"
         inkscape:connector-curvature="0"
         style="fill:#1793d1" />
      <path
         id="path865"
         d="m 23.108,211.92 c -6.929,-0.01 -12.68,1.41 -14.903,2.19 l -2.2892,12.36 c -0.0056,0.04 11.393,-3.04 16.413,-2.86 8.313,0.3 9.078,3.18 8.933,7.06 0.142,0.23 -2.145,-3.51 -9.336,-3.64 -9.073,-0.15 -21.878,3.22 -21.86,16.91 -0.24506,15.41 11.507,19.94 19.51,20.02 7.196,-0.13 10.571,-2.72 12.419,-4.11 2.428,-2.54 5.206,-5.09 7.855,-8.16 -2.506,4.56 -4.68,7.71 -6.942,10.12 v 2.03 l 10.937,-1.84 0.075,-29.73 c -0.111,-4.21 2.414,-20.31 -20.812,-20.35 z m -1.572,25.89 c 4.534,0.06 9.733,2.29 9.741,7.67 0.023,4.9 -6.129,7.53 -10.13,7.48 -4.002,-0.04 -9.313,-3.14 -9.336,-7.91 0.077,-4.26 5.008,-7.35 9.725,-7.24 z m 29.596,-23.14 -0.074,49.23 12.742,-2.45 0.021,-27.92 c 0.004,-4.15 5.94,-9.01 13.389,-8.93 1.581,-2.86 4.553,-10.17 5.277,-11.84 -16.642,-0.04 -16.853,4.79 -19.748,7.16 -0.03,-4.53 -0.01,-7.24 -0.01,-7.24 z m 71.708,6.46 c -0.12,-0.05 -6.64,-7.63 -19.76,-7.69 -12.28,-0.2 -26.056,4.56 -26.277,25.16 0.108,18.1 13.234,25.18 26.347,25.32 14.04,0.14 19.62,-8.78 19.96,-9 -1.68,-1.45 -7.95,-7.67 -7.95,-7.67 0,0 -3.92,5.58 -11.52,5.65 -7.603,0.08 -14.211,-5.87 -14.305,-14.17 -0.098,-8.3 6.075,-12.8 14.365,-13.16 7.17,0 11.31,4.63 11.31,4.63 z m 16.06,-23.69 -12.03,2.83 0.09,64.13 11.85,-2.14 0.14,-30.18 c 0.02,-3.17 4.57,-8.03 12.18,-7.87 7.26,0.07 8.89,4.84 8.87,5.44 l 0.21,34.94 11.68,-2.06 0.05,-37.05 c 0.07,-3.57 -7.81,-11.09 -20.49,-11.15 -6.02,0.01 -9.36,1.38 -11.05,2.38 -2.91,2.24 -6.23,4.39 -9.49,7.14 3.02,-3.88 5.55,-6.55 8.02,-8.55 z"
         inkscape:connector-curvature="0"
         style="fill:#4d4d4d" />
    </g>
    <g
       id="g1052"
       style="opacity:0.2">
      <g
         id="g875"
         transform="matrix(0.1970367,0,0,0.1970367,26.812998,234.75492)"
         style="">
        <path
           id="path869"
           d="m 32.253,0.20991 c -2.849,6.9843 -4.579,11.559 -7.75,18.336 1.944,2.061 4.334,4.453 8.211,7.164 -4.168,-1.715 -7.009,-3.432 -9.133,-5.219 -4.059,8.47 -10.423,20.531 -23.328,43.719 10.14,-5.854 18.002,-9.466 25.328,-10.844 -0.314,-1.351 -0.481,-2.819 -0.469,-4.344 l 0.008,-0.32 c 0.161,-6.498 3.542,-11.495 7.547,-11.156 4.004,0.339 7.122,5.884 6.961,12.383 -0.031,1.224 -0.173,2.4 -0.414,3.492 7.247,1.418 15.034,5.013 25.039,10.789 -1.973,-3.632 -3.74,-6.905 -5.422,-10.024 -2.649,-2.053 -5.411,-4.724 -11.047,-7.617 3.874,1.007 6.65,2.171 8.812,3.469 -17.098,-31.835 -18.48,-36.068 -24.343,-49.828 v -9e-5 z"
           inkscape:connector-curvature="0"
           style="fill:#1793d1" />
        <path
           d="M 50.266,38.249 C 36.394,19.422 33.179,4.247 32.364,0.624 c 7.4,17.067 7.349,17.277 17.902,37.625 z"
           id="path871"
           inkscape:connector-curvature="0"
           style="fill:#ffffff;fill-opacity:0.16567999" />
        <path
           id="path873"
           d="m 32.378,0.45992 c -0.36,0.88448 -0.7,1.7468 -1.032,2.5625 -0.364,0.8946 -0.718,1.7565 -1.062,2.5938 -0.344,0.8373 -0.693,1.6309 -1.031,2.4375 -0.339,0.8065 -0.654,1.6039 -1,2.4063 -0.346,0.802 -0.726,1.613 -1.094,2.437 -0.368,0.825 -0.752,1.658 -1.156,2.532 -0.404,0.873 -0.828,1.801 -1.282,2.75 -0.061,0.128 -0.124,0.276 -0.187,0.406 1.939,2.054 4.33,4.427 8.187,7.125 -4.167,-1.715 -7,-3.432 -9.125,-5.219 -0.11,0.226 -0.198,0.425 -0.312,0.656 -0.42,0.871 -0.871,1.733 -1.344,2.688 -0.113,0.224 -0.196,0.427 -0.312,0.656 -0.501,1.004 -1.026,2.043 -1.594,3.156 -0.113,0.22 -0.228,0.402 -0.344,0.625 -0.343,0.667 -1.44,2.77 -2.562,4.907 -0.655,1.248 -1.169,2.27 -1.907,3.656 -0.209,0.398 -0.639,1.195 -0.75,1.406 8.125,-4.573 16.891,-11.216 32.813,-5.531 -0.797,-1.51 -1.562,-2.919 -2.25,-4.25 -0.688,-1.332 -1.312,-2.571 -1.906,-3.75 -0.594,-1.179 -1.143,-2.291 -1.657,-3.344 -0.513,-1.053 -0.989,-2.047 -1.437,-3 -0.448,-0.953 -0.885,-1.87 -1.281,-2.75 -0.397,-0.879 -0.766,-1.73 -1.125,-2.562 -0.359,-0.833 -0.695,-1.658 -1.032,-2.469 -0.336,-0.8115 -0.672,-1.5896 -1,-2.4063 -0.142,-0.3554 -0.263,-0.7338 -0.406,-1.0938 -0.888,-2.0849 -1.759,-4.1515 -2.812,-6.625 v 2e-5 z"
           inkscape:connector-curvature="0"
           style="fill:url(#linearGradient877)" />
      </g>
      <g
         transform="matrix(0.1970367,0,0,0.1970367,10.273584,251.29136)"
         id="g885"
         style="">
        <path
           style="fill:#1793d1"
           inkscape:connector-curvature="0"
           d="m 32.253,0.20991 c -2.849,6.9843 -4.579,11.559 -7.75,18.336 1.944,2.061 4.334,4.453 8.211,7.164 -4.168,-1.715 -7.009,-3.432 -9.133,-5.219 -4.059,8.47 -10.423,20.531 -23.328,43.719 10.14,-5.854 18.002,-9.466 25.328,-10.844 -0.314,-1.351 -0.481,-2.819 -0.469,-4.344 l 0.008,-0.32 c 0.161,-6.498 3.542,-11.495 7.547,-11.156 4.004,0.339 7.122,5.884 6.961,12.383 -0.031,1.224 -0.173,2.4 -0.414,3.492 7.247,1.418 15.034,5.013 25.039,10.789 -1.973,-3.632 -3.74,-6.905 -5.422,-10.024 -2.649,-2.053 -5.411,-4.724 -11.047,-7.617 3.874,1.007 6.65,2.171 8.812,3.469 -17.098,-31.835 -18.48,-36.068 -24.343,-49.828 v -9e-5 z"
           id="path879" />
        <path
           style="fill:#ffffff;fill-opacity:0.16567999"
           inkscape:connector-curvature="0"
           id="path881"
           d="M 50.266,38.249 C 36.394,19.422 33.179,4.247 32.364,0.624 c 7.4,17.067 7.349,17.277 17.902,37.625 z" />
        <path
           style="fill:url(#linearGradient887)"
           inkscape:connector-curvature="0"
           d="m 32.378,0.45992 c -0.36,0.88448 -0.7,1.7468 -1.032,2.5625 -0.364,0.8946 -0.718,1.7565 -1.062,2.5938 -0.344,0.8373 -0.693,1.6309 -1.031,2.4375 -0.339,0.8065 -0.654,1.6039 -1,2.4063 -0.346,0.802 -0.726,1.613 -1.094,2.437 -0.368,0.825 -0.752,1.658 -1.156,2.532 -0.404,0.873 -0.828,1.801 -1.282,2.75 -0.061,0.128 -0.124,0.276 -0.187,0.406 1.939,2.054 4.33,4.427 8.187,7.125 -4.167,-1.715 -7,-3.432 -9.125,-5.219 -0.11,0.226 -0.198,0.425 -0.312,0.656 -0.42,0.871 -0.871,1.733 -1.344,2.688 -0.113,0.224 -0.196,0.427 -0.312,0.656 -0.501,1.004 -1.026,2.043 -1.594,3.156 -0.113,0.22 -0.228,0.402 -0.344,0.625 -0.343,0.667 -1.44,2.77 -2.562,4.907 -0.655,1.248 -1.169,2.27 -1.907,3.656 -0.209,0.398 -0.639,1.195 -0.75,1.406 8.125,-4.573 16.891,-11.216 32.813,-5.531 -0.797,-1.51 -1.562,-2.919 -2.25,-4.25 -0.688,-1.332 -1.312,-2.571 -1.906,-3.75 -0.594,-1.179 -1.143,-2.291 -1.657,-3.344 -0.513,-1.053 -0.989,-2.047 -1.437,-3 -0.448,-0.953 -0.885,-1.87 -1.281,-2.75 -0.397,-0.879 -0.766,-1.73 -1.125,-2.562 -0.359,-0.833 -0.695,-1.658 -1.032,-2.469 -0.336,-0.8115 -0.672,-1.5896 -1,-2.4063 -0.142,-0.3554 -0.263,-0.7338 -0.406,-1.0938 -0.888,-2.0849 -1.759,-4.1515 -2.812,-6.625 v 2e-5 z"
           id="path883" />
      </g>
      <g
         id="g895"
         transform="matrix(0.1970367,0,0,0.1970367,59.885913,251.29138)"
         style="">
        <path
           id="path889"
           d="m 32.253,0.20991 c -2.849,6.9843 -4.579,11.559 -7.75,18.336 1.944,2.061 4.334,4.453 8.211,7.164 -4.168,-1.715 -7.009,-3.432 -9.133,-5.219 -4.059,8.47 -10.423,20.531 -23.328,43.719 10.14,-5.854 18.002,-9.466 25.328,-10.844 -0.314,-1.351 -0.481,-2.819 -0.469,-4.344 l 0.008,-0.32 c 0.161,-6.498 3.542,-11.495 7.547,-11.156 4.004,0.339 7.122,5.884 6.961,12.383 -0.031,1.224 -0.173,2.4 -0.414,3.492 7.247,1.418 15.034,5.013 25.039,10.789 -1.973,-3.632 -3.74,-6.905 -5.422,-10.024 -2.649,-2.053 -5.411,-4.724 -11.047,-7.617 3.874,1.007 6.65,2.171 8.812,3.469 -17.098,-31.835 -18.48,-36.068 -24.343,-49.828 v -9e-5 z"
           inkscape:connector-curvature="0"
           style="fill:#1793d1" />
        <path
           d="M 50.266,38.249 C 36.394,19.422 33.179,4.247 32.364,0.624 c 7.4,17.067 7.349,17.277 17.902,37.625 z"
           id="path891"
           inkscape:connector-curvature="0"
           style="fill:#ffffff;fill-opacity:0.16567999" />
        <path
           id="path893"
           d="m 32.378,0.45992 c -0.36,0.88448 -0.7,1.7468 -1.032,2.5625 -0.364,0.8946 -0.718,1.7565 -1.062,2.5938 -0.344,0.8373 -0.693,1.6309 -1.031,2.4375 -0.339,0.8065 -0.654,1.6039 -1,2.4063 -0.346,0.802 -0.726,1.613 -1.094,2.437 -0.368,0.825 -0.752,1.658 -1.156,2.532 -0.404,0.873 -0.828,1.801 -1.282,2.75 -0.061,0.128 -0.124,0.276 -0.187,0.406 1.939,2.054 4.33,4.427 8.187,7.125 -4.167,-1.715 -7,-3.432 -9.125,-5.219 -0.11,0.226 -0.198,0.425 -0.312,0.656 -0.42,0.871 -0.871,1.733 -1.344,2.688 -0.113,0.224 -0.196,0.427 -0.312,0.656 -0.501,1.004 -1.026,2.043 -1.594,3.156 -0.113,0.22 -0.228,0.402 -0.344,0.625 -0.343,0.667 -1.44,2.77 -2.562,4.907 -0.655,1.248 -1.169,2.27 -1.907,3.656 -0.209,0.398 -0.639,1.195 -0.75,1.406 8.125,-4.573 16.891,-11.216 32.813,-5.531 -0.797,-1.51 -1.562,-2.919 -2.25,-4.25 -0.688,-1.332 -1.312,-2.571 -1.906,-3.75 -0.594,-1.179 -1.143,-2.291 -1.657,-3.344 -0.513,-1.053 -0.989,-2.047 -1.437,-3 -0.448,-0.953 -0.885,-1.87 -1.281,-2.75 -0.397,-0.879 -0.766,-1.73 -1.125,-2.562 -0.359,-0.833 -0.695,-1.658 -1.032,-2.469 -0.336,-0.8115 -0.672,-1.5896 -1,-2.4063 -0.142,-0.3554 -0.263,-0.7338 -0.406,-1.0938 -0.888,-2.0849 -1.759,-4.1515 -2.812,-6.625 v 2e-5 z"
           inkscape:connector-curvature="0"
           style="fill:url(#linearGradient897)" />
      </g>
      <g
         transform="matrix(0.1970367,0,0,0.1970367,76.422372,243.02315)"
         id="g905"
         style="">
        <path
           style="fill:#1793d1"
           inkscape:connector-curvature="0"
           d="m 32.253,0.20991 c -2.849,6.9843 -4.579,11.559 -7.75,18.336 1.944,2.061 4.334,4.453 8.211,7.164 -4.168,-1.715 -7.009,-3.432 -9.133,-5.219 -4.059,8.47 -10.423,20.531 -23.328,43.719 10.14,-5.854 18.002,-9.466 25.328,-10.844 -0.314,-1.351 -0.481,-2.819 -0.469,-4.344 l 0.008,-0.32 c 0.161,-6.498 3.542,-11.495 7.547,-11.156 4.004,0.339 7.122,5.884 6.961,12.383 -0.031,1.224 -0.173,2.4 -0.414,3.492 7.247,1.418 15.034,5.013 25.039,10.789 -1.973,-3.632 -3.74,-6.905 -5.422,-10.024 -2.649,-2.053 -5.411,-4.724 -11.047,-7.617 3.874,1.007 6.65,2.171 8.812,3.469 -17.098,-31.835 -18.48,-36.068 -24.343,-49.828 v -9e-5 z"
           id="path899" />
        <path
           style="fill:#ffffff;fill-opacity:0.16567999"
           inkscape:connector-curvature="0"
           id="path901"
           d="M 50.266,38.249 C 36.394,19.422 33.179,4.247 32.364,0.624 c 7.4,17.067 7.349,17.277 17.902,37.625 z" />
        <path
           style="fill:url(#linearGradient907)"
           inkscape:connector-curvature="0"
           d="m 32.378,0.45992 c -0.36,0.88448 -0.7,1.7468 -1.032,2.5625 -0.364,0.8946 -0.718,1.7565 -1.062,2.5938 -0.344,0.8373 -0.693,1.6309 -1.031,2.4375 -0.339,0.8065 -0.654,1.6039 -1,2.4063 -0.346,0.802 -0.726,1.613 -1.094,2.437 -0.368,0.825 -0.752,1.658 -1.156,2.532 -0.404,0.873 -0.828,1.801 -1.282,2.75 -0.061,0.128 -0.124,0.276 -0.187,0.406 1.939,2.054 4.33,4.427 8.187,7.125 -4.167,-1.715 -7,-3.432 -9.125,-5.219 -0.11,0.226 -0.198,0.425 -0.312,0.656 -0.42,0.871 -0.871,1.733 -1.344,2.688 -0.113,0.224 -0.196,0.427 -0.312,0.656 -0.501,1.004 -1.026,2.043 -1.594,3.156 -0.113,0.22 -0.228,0.402 -0.344,0.625 -0.343,0.667 -1.44,2.77 -2.562,4.907 -0.655,1.248 -1.169,2.27 -1.907,3.656 -0.209,0.398 -0.639,1.195 -0.75,1.406 8.125,-4.573 16.891,-11.216 32.813,-5.531 -0.797,-1.51 -1.562,-2.919 -2.25,-4.25 -0.688,-1.332 -1.312,-2.571 -1.906,-3.75 -0.594,-1.179 -1.143,-2.291 -1.657,-3.344 -0.513,-1.053 -0.989,-2.047 -1.437,-3 -0.448,-0.953 -0.885,-1.87 -1.281,-2.75 -0.397,-0.879 -0.766,-1.73 -1.125,-2.562 -0.359,-0.833 -0.695,-1.658 -1.032,-2.469 -0.336,-0.8115 -0.672,-1.5896 -1,-2.4063 -0.142,-0.3554 -0.263,-0.7338 -0.406,-1.0938 -0.888,-2.0849 -1.759,-4.1515 -2.812,-6.625 v 2e-5 z"
           id="path903" />
      </g>
      <g
         id="g915"
         transform="matrix(0.1970367,0,0,0.1970367,76.422372,259.55961)"
         style="">
        <path
           id="path909"
           d="m 32.253,0.20991 c -2.849,6.9843 -4.579,11.559 -7.75,18.336 1.944,2.061 4.334,4.453 8.211,7.164 -4.168,-1.715 -7.009,-3.432 -9.133,-5.219 -4.059,8.47 -10.423,20.531 -23.328,43.719 10.14,-5.854 18.002,-9.466 25.328,-10.844 -0.314,-1.351 -0.481,-2.819 -0.469,-4.344 l 0.008,-0.32 c 0.161,-6.498 3.542,-11.495 7.547,-11.156 4.004,0.339 7.122,5.884 6.961,12.383 -0.031,1.224 -0.173,2.4 -0.414,3.492 7.247,1.418 15.034,5.013 25.039,10.789 -1.973,-3.632 -3.74,-6.905 -5.422,-10.024 -2.649,-2.053 -5.411,-4.724 -11.047,-7.617 3.874,1.007 6.65,2.171 8.812,3.469 -17.098,-31.835 -18.48,-36.068 -24.343,-49.828 v -9e-5 z"
           inkscape:connector-curvature="0"
           style="fill:#1793d1" />
        <path
           d="M 50.266,38.249 C 36.394,19.422 33.179,4.247 32.364,0.624 c 7.4,17.067 7.349,17.277 17.902,37.625 z"
           id="path911"
           inkscape:connector-curvature="0"
           style="fill:#ffffff;fill-opacity:0.16567999" />
        <path
           id="path913"
           d="m 32.378,0.45992 c -0.36,0.88448 -0.7,1.7468 -1.032,2.5625 -0.364,0.8946 -0.718,1.7565 -1.062,2.5938 -0.344,0.8373 -0.693,1.6309 -1.031,2.4375 -0.339,0.8065 -0.654,1.6039 -1,2.4063 -0.346,0.802 -0.726,1.613 -1.094,2.437 -0.368,0.825 -0.752,1.658 -1.156,2.532 -0.404,0.873 -0.828,1.801 -1.282,2.75 -0.061,0.128 -0.124,0.276 -0.187,0.406 1.939,2.054 4.33,4.427 8.187,7.125 -4.167,-1.715 -7,-3.432 -9.125,-5.219 -0.11,0.226 -0.198,0.425 -0.312,0.656 -0.42,0.871 -0.871,1.733 -1.344,2.688 -0.113,0.224 -0.196,0.427 -0.312,0.656 -0.501,1.004 -1.026,2.043 -1.594,3.156 -0.113,0.22 -0.228,0.402 -0.344,0.625 -0.343,0.667 -1.44,2.77 -2.562,4.907 -0.655,1.248 -1.169,2.27 -1.907,3.656 -0.209,0.398 -0.639,1.195 -0.75,1.406 8.125,-4.573 16.891,-11.216 32.813,-5.531 -0.797,-1.51 -1.562,-2.919 -2.25,-4.25 -0.688,-1.332 -1.312,-2.571 -1.906,-3.75 -0.594,-1.179 -1.143,-2.291 -1.657,-3.344 -0.513,-1.053 -0.989,-2.047 -1.437,-3 -0.448,-0.953 -0.885,-1.87 -1.281,-2.75 -0.397,-0.879 -0.766,-1.73 -1.125,-2.562 -0.359,-0.833 -0.695,-1.658 -1.032,-2.469 -0.336,-0.8115 -0.672,-1.5896 -1,-2.4063 -0.142,-0.3554 -0.263,-0.7338 -0.406,-1.0938 -0.888,-2.0849 -1.759,-4.1515 -2.812,-6.625 v 2e-5 z"
           inkscape:connector-curvature="0"
           style="fill:url(#linearGradient917)" />
      </g>
      <g
         transform="matrix(0.1970367,0,0,0.1970367,84.690601,292.63253)"
         id="g926"
         style="">
        <path
           style="fill:#1793d1"
           inkscape:connector-curvature="0"
           d="m 32.253,0.20991 c -2.849,6.9843 -4.579,11.559 -7.75,18.336 1.944,2.061 4.334,4.453 8.211,7.164 -4.168,-1.715 -7.009,-3.432 -9.133,-5.219 -4.059,8.47 -10.423,20.531 -23.328,43.719 10.14,-5.854 18.002,-9.466 25.328,-10.844 -0.314,-1.351 -0.481,-2.819 -0.469,-4.344 l 0.008,-0.32 c 0.161,-6.498 3.542,-11.495 7.547,-11.156 4.004,0.339 7.122,5.884 6.961,12.383 -0.031,1.224 -0.173,2.4 -0.414,3.492 7.247,1.418 15.034,5.013 25.039,10.789 -1.973,-3.632 -3.74,-6.905 -5.422,-10.024 -2.649,-2.053 -5.411,-4.724 -11.047,-7.617 3.874,1.007 6.65,2.171 8.812,3.469 -17.098,-31.835 -18.48,-36.068 -24.343,-49.828 v -9e-5 z"
           id="path920" />
        <path
           style="fill:#ffffff;fill-opacity:0.16567999"
           inkscape:connector-curvature="0"
           id="path922"
           d="M 50.266,38.249 C 36.394,19.422 33.179,4.247 32.364,0.624 c 7.4,17.067 7.349,17.277 17.902,37.625 z" />
        <path
           style="fill:url(#linearGradient928)"
           inkscape:connector-curvature="0"
           d="m 32.378,0.45992 c -0.36,0.88448 -0.7,1.7468 -1.032,2.5625 -0.364,0.8946 -0.718,1.7565 -1.062,2.5938 -0.344,0.8373 -0.693,1.6309 -1.031,2.4375 -0.339,0.8065 -0.654,1.6039 -1,2.4063 -0.346,0.802 -0.726,1.613 -1.094,2.437 -0.368,0.825 -0.752,1.658 -1.156,2.532 -0.404,0.873 -0.828,1.801 -1.282,2.75 -0.061,0.128 -0.124,0.276 -0.187,0.406 1.939,2.054 4.33,4.427 8.187,7.125 -4.167,-1.715 -7,-3.432 -9.125,-5.219 -0.11,0.226 -0.198,0.425 -0.312,0.656 -0.42,0.871 -0.871,1.733 -1.344,2.688 -0.113,0.224 -0.196,0.427 -0.312,0.656 -0.501,1.004 -1.026,2.043 -1.594,3.156 -0.113,0.22 -0.228,0.402 -0.344,0.625 -0.343,0.667 -1.44,2.77 -2.562,4.907 -0.655,1.248 -1.169,2.27 -1.907,3.656 -0.209,0.398 -0.639,1.195 -0.75,1.406 8.125,-4.573 16.891,-11.216 32.813,-5.531 -0.797,-1.51 -1.562,-2.919 -2.25,-4.25 -0.688,-1.332 -1.312,-2.571 -1.906,-3.75 -0.594,-1.179 -1.143,-2.291 -1.657,-3.344 -0.513,-1.053 -0.989,-2.047 -1.437,-3 -0.448,-0.953 -0.885,-1.87 -1.281,-2.75 -0.397,-0.879 -0.766,-1.73 -1.125,-2.562 -0.359,-0.833 -0.695,-1.658 -1.032,-2.469 -0.336,-0.8115 -0.672,-1.5896 -1,-2.4063 -0.142,-0.3554 -0.263,-0.7338 -0.406,-1.0938 -0.888,-2.0849 -1.759,-4.1515 -2.812,-6.625 v 2e-5 z"
           id="path924" />
      </g>
      <g
         id="g936"
         transform="matrix(0.1970367,0,0,0.1970367,84.690601,226.48669)"
         style="">
        <path
           id="path930"
           d="m 32.253,0.20991 c -2.849,6.9843 -4.579,11.559 -7.75,18.336 1.944,2.061 4.334,4.453 8.211,7.164 -4.168,-1.715 -7.009,-3.432 -9.133,-5.219 -4.059,8.47 -10.423,20.531 -23.328,43.719 10.14,-5.854 18.002,-9.466 25.328,-10.844 -0.314,-1.351 -0.481,-2.819 -0.469,-4.344 l 0.008,-0.32 c 0.161,-6.498 3.542,-11.495 7.547,-11.156 4.004,0.339 7.122,5.884 6.961,12.383 -0.031,1.224 -0.173,2.4 -0.414,3.492 7.247,1.418 15.034,5.013 25.039,10.789 -1.973,-3.632 -3.74,-6.905 -5.422,-10.024 -2.649,-2.053 -5.411,-4.724 -11.047,-7.617 3.874,1.007 6.65,2.171 8.812,3.469 -17.098,-31.835 -18.48,-36.068 -24.343,-49.828 v -9e-5 z"
           inkscape:connector-curvature="0"
           style="fill:#1793d1" />
        <path
           d="M 50.266,38.249 C 36.394,19.422 33.179,4.247 32.364,0.624 c 7.4,17.067 7.349,17.277 17.902,37.625 z"
           id="path932"
           inkscape:connector-curvature="0"
           style="fill:#ffffff;fill-opacity:0.16567999" />
        <path
           id="path934"
           d="m 32.378,0.45992 c -0.36,0.88448 -0.7,1.7468 -1.032,2.5625 -0.364,0.8946 -0.718,1.7565 -1.062,2.5938 -0.344,0.8373 -0.693,1.6309 -1.031,2.4375 -0.339,0.8065 -0.654,1.6039 -1,2.4063 -0.346,0.802 -0.726,1.613 -1.094,2.437 -0.368,0.825 -0.752,1.658 -1.156,2.532 -0.404,0.873 -0.828,1.801 -1.282,2.75 -0.061,0.128 -0.124,0.276 -0.187,0.406 1.939,2.054 4.33,4.427 8.187,7.125 -4.167,-1.715 -7,-3.432 -9.125,-5.219 -0.11,0.226 -0.198,0.425 -0.312,0.656 -0.42,0.871 -0.871,1.733 -1.344,2.688 -0.113,0.224 -0.196,0.427 -0.312,0.656 -0.501,1.004 -1.026,2.043 -1.594,3.156 -0.113,0.22 -0.228,0.402 -0.344,0.625 -0.343,0.667 -1.44,2.77 -2.562,4.907 -0.655,1.248 -1.169,2.27 -1.907,3.656 -0.209,0.398 -0.639,1.195 -0.75,1.406 8.125,-4.573 16.891,-11.216 32.813,-5.531 -0.797,-1.51 -1.562,-2.919 -2.25,-4.25 -0.688,-1.332 -1.312,-2.571 -1.906,-3.75 -0.594,-1.179 -1.143,-2.291 -1.657,-3.344 -0.513,-1.053 -0.989,-2.047 -1.437,-3 -0.448,-0.953 -0.885,-1.87 -1.281,-2.75 -0.397,-0.879 -0.766,-1.73 -1.125,-2.562 -0.359,-0.833 -0.695,-1.658 -1.032,-2.469 -0.336,-0.8115 -0.672,-1.5896 -1,-2.4063 -0.142,-0.3554 -0.263,-0.7338 -0.406,-1.0938 -0.888,-2.0849 -1.759,-4.1515 -2.812,-6.625 v 2e-5 z"
           inkscape:connector-curvature="0"
           style="fill:url(#linearGradient938)" />
      </g>
    </g>
    <path
       style="fill:#1793d1;stroke-width:0.37166029;fill-opacity:0.23529412"
       d="M 47.048828 5.0371094 C 45.989963 7.6328889 45.346505 9.3347629 44.167969 11.853516 C 44.890478 12.619512 45.779777 13.508079 47.220703 14.515625 C 45.671626 13.878245 44.615579 13.24031 43.826172 12.576172 C 42.317604 15.724103 39.952531 20.20614 35.15625 28.824219 C 38.924889 26.648496 41.845573 25.307086 44.568359 24.794922 C 44.451648 24.292849 44.390071 23.746465 44.394531 23.179688 L 44.398438 23.060547 C 44.458267 20.645504 45.714626 18.788091 47.203125 18.914062 C 48.691254 19.039921 49.8489 21.100205 49.789062 23.515625 C 49.777346 23.970567 49.726256 24.408607 49.636719 24.814453 C 52.330139 25.34147 55.222945 26.677523 58.941406 28.824219 C 58.208121 27.47436 57.550911 26.258828 56.925781 25.099609 C 55.941252 24.336598 54.914987 23.342778 52.820312 22.267578 C 54.260124 22.641751 55.292172 23.074222 56.095703 23.556641 C 49.741051 11.72483 49.227873 10.151113 47.048828 5.0371094 z M 172.04883 5.0371094 C 170.98996 7.6328889 170.3465 9.3347629 169.16797 11.853516 C 169.89048 12.619512 170.77978 13.508079 172.2207 14.515625 C 170.67163 13.878245 169.61558 13.24031 168.82617 12.576172 C 167.3176 15.724103 164.95253 20.20614 160.15625 28.824219 C 163.92489 26.648496 166.84557 25.307086 169.56836 24.794922 C 169.45165 24.292849 169.39007 23.746465 169.39453 23.179688 L 169.39844 23.060547 C 169.45827 20.645504 170.71463 18.788091 172.20312 18.914062 C 173.69125 19.039921 174.8489 21.100205 174.78906 23.515625 C 174.77735 23.970567 174.72626 24.408607 174.63672 24.814453 C 177.33014 25.34147 180.22294 26.677523 183.94141 28.824219 C 183.20812 27.47436 182.55091 26.258828 181.92578 25.099609 C 180.94125 24.336598 179.91499 23.342778 177.82031 22.267578 C 179.26012 22.641751 180.29217 23.074222 181.0957 23.556641 C 174.74105 11.72483 174.22787 10.151113 172.04883 5.0371094 z M 265.79883 5.0371094 C 264.73996 7.6328889 264.0965 9.3347629 262.91797 11.853516 C 263.64048 12.619512 264.52978 13.508079 265.9707 14.515625 C 264.42163 13.878245 263.36558 13.24031 262.57617 12.576172 C 261.0676 15.724103 258.70253 20.20614 253.90625 28.824219 C 257.67489 26.648496 260.59557 25.307086 263.31836 24.794922 C 263.20165 24.292849 263.14007 23.746465 263.14453 23.179688 L 263.14844 23.060547 C 263.20827 20.645504 264.46463 18.788091 265.95312 18.914062 C 267.44125 19.039921 268.5989 21.100205 268.53906 23.515625 C 268.52735 23.970567 268.47626 24.408607 268.38672 24.814453 C 271.08014 25.34147 273.97294 26.677523 277.69141 28.824219 C 276.95812 27.47436 276.30286 26.258828 275.67773 25.099609 C 274.69321 24.336598 273.66499 23.342778 271.57031 22.267578 C 273.01012 22.641751 274.04217 23.074222 274.8457 23.556641 C 268.49105 11.72483 267.97787 10.151113 265.79883 5.0371094 z M 390.79883 5.0371094 C 389.73996 7.6328889 389.0965 9.3347629 387.91797 11.853516 C 388.64046 12.619512 389.52976 13.508079 390.9707 14.515625 C 389.42163 13.878245 388.3656 13.24031 387.57617 12.576172 C 386.06761 15.724103 383.70255 20.20614 378.90625 28.824219 C 382.67489 26.648496 385.59559 25.307086 388.31836 24.794922 C 388.20157 24.292849 388.14 23.746465 388.14453 23.179688 L 388.14844 23.060547 C 388.20815 20.645504 389.4646 18.788091 390.95312 18.914062 C 392.44124 19.039921 393.59889 21.100205 393.53906 23.515625 C 393.52772 23.970567 393.47629 24.408607 393.38672 24.814453 C 396.08012 25.34147 398.97296 26.677523 402.69141 28.824219 C 401.95814 27.47436 401.30287 26.258828 400.67773 25.099609 C 399.69321 24.336598 398.665 23.342778 396.57031 22.267578 C 398.01012 22.641751 399.04218 23.074222 399.8457 23.556641 C 393.49103 11.72483 392.97788 10.151113 390.79883 5.0371094 z M 15.798828 36.287109 C 14.739963 38.882889 14.096505 40.584763 12.917969 43.103516 C 13.640478 43.869512 14.529777 44.758079 15.970703 45.765625 C 14.421626 45.128245 13.365579 44.49031 12.576172 43.826172 C 11.067604 46.974103 8.7025309 51.45614 3.90625 60.074219 C 7.6748887 57.898496 10.595573 56.557086 13.318359 56.044922 C 13.201648 55.542849 13.140071 54.996465 13.144531 54.429688 L 13.148438 54.310547 C 13.208267 51.895504 14.464626 50.038091 15.953125 50.164062 C 17.441254 50.289921 18.5989 52.350205 18.539062 54.765625 C 18.527346 55.220567 18.476256 55.658607 18.386719 56.064453 C 21.080139 56.59147 23.972945 57.927523 27.691406 60.074219 C 26.958121 58.72436 26.300911 57.508828 25.675781 56.349609 C 24.691252 55.586598 23.664987 54.592778 21.570312 53.517578 C 23.010124 53.891751 24.042172 54.324222 24.845703 54.806641 C 18.491051 42.97483 17.977873 41.401113 15.798828 36.287109 z M 78.298828 36.287109 C 77.239963 38.882889 76.596505 40.584763 75.417969 43.103516 C 76.140478 43.869512 77.029777 44.758079 78.470703 45.765625 C 76.921626 45.128245 75.865579 44.49031 75.076172 43.826172 C 73.567604 46.974103 71.202531 51.45614 66.40625 60.074219 C 70.174889 57.898496 73.095573 56.557086 75.818359 56.044922 C 75.701648 55.542849 75.640071 54.996465 75.644531 54.429688 L 75.648438 54.310547 C 75.708267 51.895504 76.964626 50.038091 78.453125 50.164062 C 79.941254 50.289921 81.0989 52.350205 81.039062 54.765625 C 81.027346 55.220567 80.976256 55.658607 80.886719 56.064453 C 83.580139 56.59147 86.472945 57.927523 90.191406 60.074219 C 89.458121 58.72436 88.800911 57.508828 88.175781 56.349609 C 87.191252 55.586598 86.164987 54.592778 84.070312 53.517578 C 85.510124 53.891751 86.542172 54.324222 87.345703 54.806641 C 80.991051 42.97483 80.477873 41.401113 78.298828 36.287109 z M 15.798828 67.537109 C 14.739963 70.132889 14.096505 71.834763 12.917969 74.353516 C 13.640478 75.119512 14.529777 76.008079 15.970703 77.015625 C 14.421626 76.378245 13.365579 75.74031 12.576172 75.076172 C 11.067604 78.224103 8.7025309 82.70614 3.90625 91.324219 C 7.6748887 89.148496 10.595573 87.807086 13.318359 87.294922 C 13.201648 86.792849 13.140071 86.246465 13.144531 85.679688 L 13.148438 85.560547 C 13.208267 83.145504 14.464626 81.288091 15.953125 81.414062 C 17.441254 81.539921 18.5989 83.600205 18.539062 86.015625 C 18.527346 86.470567 18.476256 86.908607 18.386719 87.314453 C 21.080139 87.84147 23.972945 89.177523 27.691406 91.324219 C 26.958121 89.97436 26.300911 88.758828 25.675781 87.599609 C 24.691252 86.836598 23.664987 85.842778 21.570312 84.767578 C 23.010124 85.141751 24.042172 85.574222 24.845703 86.056641 C 18.491051 74.22483 17.977873 72.651113 15.798828 67.537109 z M 359.54883 67.537109 C 358.48996 70.132889 357.8465 71.834763 356.66797 74.353516 C 357.39046 75.119512 358.27976 76.008079 359.7207 77.015625 C 358.17163 76.378245 357.1156 75.74031 356.32617 75.076172 C 354.81761 78.224103 352.45255 82.70614 347.65625 91.324219 C 351.42489 89.148496 354.34559 87.807086 357.06836 87.294922 C 356.95157 86.792849 356.89 86.246465 356.89453 85.679688 L 356.89844 85.560547 C 356.95815 83.145504 358.2146 81.288091 359.70312 81.414062 C 361.19124 81.539921 362.34889 83.600205 362.28906 86.015625 C 362.27772 86.470567 362.22629 86.908607 362.13672 87.314453 C 364.83012 87.84147 367.72296 89.177523 371.44141 91.324219 C 370.70814 89.97436 370.05287 88.758828 369.42773 87.599609 C 368.44321 86.836598 367.415 85.842778 365.32031 84.767578 C 366.76012 85.141751 367.79218 85.574222 368.5957 86.056641 C 362.24103 74.22483 361.72788 72.651113 359.54883 67.537109 z M 15.798828 98.787109 C 14.739963 101.38289 14.096505 103.08476 12.917969 105.60352 C 13.640478 106.36951 14.529777 107.25808 15.970703 108.26562 C 14.421626 107.62825 13.365579 106.99031 12.576172 106.32617 C 11.067604 109.4741 8.7025309 113.95614 3.90625 122.57422 C 7.6748887 120.3985 10.595573 119.05513 13.318359 118.54297 C 13.201648 118.0409 13.140071 117.49647 13.144531 116.92969 L 13.148438 116.81055 C 13.208267 114.3955 14.464626 112.53809 15.953125 112.66406 C 17.441254 112.78992 18.5989 114.8502 18.539062 117.26562 C 18.527346 117.72057 18.476256 118.15861 18.386719 118.56445 C 21.080139 119.09147 23.972945 120.42752 27.691406 122.57422 C 26.958121 121.22436 26.300911 120.00688 25.675781 118.84766 C 24.691252 118.08465 23.664987 117.09278 21.570312 116.01758 C 23.010124 116.39175 24.042172 116.82422 24.845703 117.30664 C 18.491051 105.47483 17.977873 103.90111 15.798828 98.787109 z M 109.54883 98.787109 C 108.48996 101.38289 107.8465 103.08476 106.66797 105.60352 C 107.39048 106.36951 108.27978 107.25808 109.7207 108.26562 C 108.17163 107.62825 107.11558 106.99031 106.32617 106.32617 C 104.8176 109.4741 102.45253 113.95614 97.65625 122.57422 C 101.42489 120.3985 104.34557 119.05513 107.06836 118.54297 C 106.95165 118.0409 106.89007 117.49647 106.89453 116.92969 L 106.89844 116.81055 C 106.95827 114.3955 108.21463 112.53809 109.70312 112.66406 C 111.19125 112.78992 112.3489 114.8502 112.28906 117.26562 C 112.27735 117.72057 112.22626 118.15861 112.13672 118.56445 C 114.83014 119.09147 117.72294 120.42752 121.44141 122.57422 C 120.70812 121.22436 120.05091 120.00688 119.42578 118.84766 C 118.44125 118.08465 117.41499 117.09278 115.32031 116.01758 C 116.76012 116.39175 117.79217 116.82422 118.5957 117.30664 C 112.24105 105.47483 111.72787 103.90111 109.54883 98.787109 z M 390.79883 98.787109 C 389.73996 101.38289 389.0965 103.08476 387.91797 105.60352 C 388.64046 106.36951 389.52976 107.25808 390.9707 108.26562 C 389.42163 107.62825 388.3656 106.99031 387.57617 106.32617 C 386.06761 109.4741 383.70255 113.95614 378.90625 122.57422 C 382.67489 120.3985 385.59559 119.05513 388.31836 118.54297 C 388.20157 118.0409 388.14 117.49647 388.14453 116.92969 L 388.14844 116.81055 C 388.20815 114.3955 389.4646 112.53809 390.95312 112.66406 C 392.44124 112.78992 393.59889 114.8502 393.53906 117.26562 C 393.52772 117.72057 393.47629 118.15861 393.38672 118.56445 C 396.08012 119.09147 398.97296 120.42752 402.69141 122.57422 C 401.95814 121.22436 401.30287 120.00688 400.67773 118.84766 C 399.69321 118.08465 398.665 117.09278 396.57031 116.01758 C 398.01012 116.39175 399.04218 116.82422 399.8457 117.30664 C 393.49103 105.47483 392.97788 103.90111 390.79883 98.787109 z M 453.29883 98.787109 C 452.23996 101.38289 451.5965 103.08476 450.41797 105.60352 C 451.14046 106.36951 452.02976 107.25808 453.4707 108.26562 C 451.92163 107.62825 450.8656 106.99031 450.07617 106.32617 C 448.56761 109.4741 446.20255 113.95614 441.40625 122.57422 C 445.17489 120.3985 448.09559 119.05513 450.81836 118.54297 C 450.70157 118.0409 450.64 117.49647 450.64453 116.92969 L 450.64844 116.81055 C 450.70815 114.3955 451.9646 112.53809 453.45312 112.66406 C 454.94124 112.78992 456.09889 114.8502 456.03906 117.26562 C 456.02772 117.72057 455.97629 118.15861 455.88672 118.56445 C 458.58012 119.09147 461.47296 120.42752 465.19141 122.57422 C 464.45814 121.22436 463.80287 120.00688 463.17773 118.84766 C 462.19321 118.08465 461.165 117.09278 459.07031 116.01758 C 460.51012 116.39175 461.54218 116.82422 462.3457 117.30664 C 455.99103 105.47483 455.47788 103.90111 453.29883 98.787109 z M 484.54883 98.787109 C 483.48996 101.38289 482.8465 103.08476 481.66797 105.60352 C 482.39046 106.36951 483.27976 107.25808 484.7207 108.26562 C 483.17163 107.62825 482.1156 106.99031 481.32617 106.32617 C 479.81761 109.4741 477.45255 113.95614 472.65625 122.57422 C 476.42489 120.3985 479.34559 119.05513 482.06836 118.54297 C 481.95157 118.0409 481.89 117.49647 481.89453 116.92969 L 481.89844 116.81055 C 481.95815 114.3955 483.2146 112.53809 484.70312 112.66406 C 486.19124 112.78992 487.34889 114.8502 487.28906 117.26562 C 487.27772 117.72057 487.22629 118.15861 487.13672 118.56445 C 489.83012 119.09147 492.72296 120.42752 496.44141 122.57422 C 495.70814 121.22436 495.05287 120.00688 494.42773 118.84766 C 493.44321 118.08465 492.415 117.09278 490.32031 116.01758 C 491.76012 116.39175 492.79218 116.82422 493.5957 117.30664 C 487.24103 105.47483 486.72788 103.90111 484.54883 98.787109 z M 78.298828 130.03711 C 77.239963 132.63289 76.596505 134.33476 75.417969 136.85352 C 76.140478 137.61951 77.029777 138.50808 78.470703 139.51562 C 76.921626 138.87825 75.865579 138.24031 75.076172 137.57617 C 73.567604 140.7241 71.202531 145.20614 66.40625 153.82422 C 70.174889 151.6485 73.095573 150.30513 75.818359 149.79297 C 75.701648 149.2909 75.640071 148.74647 75.644531 148.17969 L 75.648438 148.06055 C 75.708267 145.6455 76.964626 143.78809 78.453125 143.91406 C 79.941254 144.03992 81.0989 146.1002 81.039062 148.51562 C 81.027346 148.97057 80.976256 149.40861 80.886719 149.81445 C 83.580139 150.34147 86.472945 151.67752 90.191406 153.82422 C 89.458121 152.47436 88.800911 151.25688 88.175781 150.09766 C 87.191252 149.33465 86.164987 148.34278 84.070312 147.26758 C 85.510124 147.64175 86.542172 148.07422 87.345703 148.55664 C 80.991051 136.72483 80.477873 135.15111 78.298828 130.03711 z M 390.79883 130.03711 C 389.73996 132.63289 389.0965 134.33476 387.91797 136.85352 C 388.64046 137.61951 389.52976 138.50808 390.9707 139.51562 C 389.42163 138.87825 388.3656 138.24031 387.57617 137.57617 C 386.06761 140.7241 383.70255 145.20614 378.90625 153.82422 C 382.67489 151.6485 385.59559 150.30513 388.31836 149.79297 C 388.20157 149.2909 388.14 148.74647 388.14453 148.17969 L 388.14844 148.06055 C 388.20815 145.6455 389.4646 143.78809 390.95312 143.91406 C 392.44124 144.03992 393.59889 146.1002 393.53906 148.51562 C 393.52772 148.97057 393.47629 149.40861 393.38672 149.81445 C 396.08012 150.34147 398.97296 151.67752 402.69141 153.82422 C 401.95814 152.47436 401.30287 151.25688 400.67773 150.09766 C 399.69321 149.33465 398.665 148.34278 396.57031 147.26758 C 398.01012 147.64175 399.04218 148.07422 399.8457 148.55664 C 393.49103 136.72483 392.97788 135.15111 390.79883 130.03711 z M 422.04883 130.03711 C 420.98996 132.63289 420.3465 134.33476 419.16797 136.85352 C 419.89046 137.61951 420.77976 138.50808 422.2207 139.51562 C 420.67163 138.87825 419.6156 138.24031 418.82617 137.57617 C 417.31761 140.7241 414.95255 145.20614 410.15625 153.82422 C 413.92489 151.6485 416.84559 150.30513 419.56836 149.79297 C 419.45157 149.2909 419.39 148.74647 419.39453 148.17969 L 419.39844 148.06055 C 419.45815 145.6455 420.7146 143.78809 422.20312 143.91406 C 423.69124 144.03992 424.84889 146.1002 424.78906 148.51562 C 424.77772 148.97057 424.72629 149.40861 424.63672 149.81445 C 427.33012 150.34147 430.22296 151.67752 433.94141 153.82422 C 433.20814 152.47436 432.55287 151.25688 431.92773 150.09766 C 430.94321 149.33465 429.915 148.34278 427.82031 147.26758 C 429.26012 147.64175 430.29218 148.07422 431.0957 148.55664 C 424.74103 136.72483 424.22788 135.15111 422.04883 130.03711 z M 484.54883 130.03711 C 483.48996 132.63289 482.8465 134.33476 481.66797 136.85352 C 482.39046 137.61951 483.27976 138.50808 484.7207 139.51562 C 483.17163 138.87825 482.1156 138.24031 481.32617 137.57617 C 479.81761 140.7241 477.45255 145.20614 472.65625 153.82422 C 476.42489 151.6485 479.34559 150.30513 482.06836 149.79297 C 481.95157 149.2909 481.89 148.74647 481.89453 148.17969 L 481.89844 148.06055 C 481.95815 145.6455 483.2146 143.78809 484.70312 143.91406 C 486.19124 144.03992 487.34889 146.1002 487.28906 148.51562 C 487.27772 148.97057 487.22629 149.40861 487.13672 149.81445 C 489.83012 150.34147 492.72296 151.67752 496.44141 153.82422 C 495.70814 152.47436 495.05287 151.25688 494.42773 150.09766 C 493.44321 149.33465 492.415 148.34278 490.32031 147.26758 C 491.76012 147.64175 492.79218 148.07422 493.5957 148.55664 C 487.24103 136.72483 486.72788 135.15111 484.54883 130.03711 z M 109.54883 161.28711 C 108.48996 163.88289 107.8465 165.58476 106.66797 168.10352 C 107.39048 168.86951 108.27978 169.75808 109.7207 170.76562 C 108.17163 170.12825 107.11558 169.49031 106.32617 168.82617 C 104.8176 171.9741 102.45253 176.45614 97.65625 185.07422 C 101.42489 182.8985 104.34557 181.55513 107.06836 181.04297 C 106.95165 180.5409 106.89007 179.99647 106.89453 179.42969 L 106.89844 179.31055 C 106.95827 176.8955 108.21463 175.03809 109.70312 175.16406 C 111.19125 175.28992 112.3489 177.3502 112.28906 179.76562 C 112.27735 180.22057 112.22626 180.65861 112.13672 181.06445 C 114.83014 181.59147 117.72294 182.92752 121.44141 185.07422 C 120.70812 183.72436 120.05091 182.50688 119.42578 181.34766 C 118.44125 180.58465 117.41499 179.59278 115.32031 178.51758 C 116.76012 178.89175 117.79217 179.32422 118.5957 179.80664 C 112.24105 167.97483 111.72787 166.40111 109.54883 161.28711 z M 140.79883 161.28711 C 139.73996 163.88289 139.0965 165.58476 137.91797 168.10352 C 138.64048 168.86951 139.52978 169.75808 140.9707 170.76562 C 139.42163 170.12825 138.36558 169.49031 137.57617 168.82617 C 136.0676 171.9741 133.70253 176.45614 128.90625 185.07422 C 132.67489 182.8985 135.59557 181.55513 138.31836 181.04297 C 138.20165 180.5409 138.14007 179.99647 138.14453 179.42969 L 138.14844 179.31055 C 138.20827 176.8955 139.46463 175.03809 140.95312 175.16406 C 142.44125 175.28992 143.5989 177.3502 143.53906 179.76562 C 143.52735 180.22057 143.47626 180.65861 143.38672 181.06445 C 146.08014 181.59147 148.97294 182.92752 152.69141 185.07422 C 151.95812 183.72436 151.30286 182.50688 150.67773 181.34766 C 149.69321 180.58465 148.66499 179.59278 146.57031 178.51758 C 148.01012 178.89175 149.04217 179.32422 149.8457 179.80664 C 143.49105 167.97483 142.97787 166.40111 140.79883 161.28711 z M 297.04883 161.28711 C 295.98996 163.88289 295.3465 165.58476 294.16797 168.10352 C 294.89048 168.86951 295.77978 169.75808 297.2207 170.76562 C 295.67163 170.12825 294.61558 169.49031 293.82617 168.82617 C 292.3176 171.9741 289.95253 176.45614 285.15625 185.07422 C 288.92489 182.8985 291.84557 181.55513 294.56836 181.04297 C 294.45165 180.5409 294.39007 179.99647 294.39453 179.42969 L 294.39844 179.31055 C 294.45827 176.8955 295.71463 175.03809 297.20312 175.16406 C 298.69125 175.28992 299.8489 177.3502 299.78906 179.76562 C 299.77735 180.22057 299.72626 180.65861 299.63672 181.06445 C 302.33014 181.59147 305.22294 182.92752 308.94141 185.07422 C 308.20812 183.72436 307.55286 182.50688 306.92773 181.34766 C 305.94321 180.58465 304.91499 179.59278 302.82031 178.51758 C 304.26012 178.89175 305.29217 179.32422 306.0957 179.80664 C 299.74105 167.97483 299.22787 166.40111 297.04883 161.28711 z M 328.29883 161.28711 C 327.23996 163.88289 326.5965 165.58476 325.41797 168.10352 C 326.14048 168.86951 327.02978 169.75808 328.4707 170.76562 C 326.92163 170.12825 325.86558 169.49031 325.07617 168.82617 C 323.5676 171.9741 321.20253 176.45614 316.40625 185.07422 C 320.17489 182.8985 323.09557 181.55513 325.81836 181.04297 C 325.70165 180.5409 325.64007 179.99647 325.64453 179.42969 L 325.64844 179.31055 C 325.70827 176.8955 326.96463 175.03809 328.45312 175.16406 C 329.94125 175.28992 331.0989 177.3502 331.03906 179.76562 C 331.02735 180.22057 330.97626 180.65861 330.88672 181.06445 C 333.58014 181.59147 336.47294 182.92752 340.19141 185.07422 C 339.45812 183.72436 338.80286 182.50688 338.17773 181.34766 C 337.19321 180.58465 336.16499 179.59278 334.07031 178.51758 C 335.51012 178.89175 336.54217 179.32422 337.3457 179.80664 C 330.99105 167.97483 330.47787 166.40111 328.29883 161.28711 z M 359.54883 161.28711 C 358.48996 163.88289 357.8465 165.58476 356.66797 168.10352 C 357.39048 168.86951 358.27978 169.75808 359.7207 170.76562 C 358.17163 170.12825 357.11558 169.49031 356.32617 168.82617 C 354.8176 171.9741 352.45253 176.45614 347.65625 185.07422 C 351.42489 182.8985 354.34557 181.55513 357.06836 181.04297 C 356.95165 180.5409 356.89007 179.99647 356.89453 179.42969 L 356.89844 179.31055 C 356.95827 176.8955 358.21463 175.03809 359.70312 175.16406 C 361.19125 175.28992 362.3489 177.3502 362.28906 179.76562 C 362.27735 180.22057 362.22626 180.65861 362.13672 181.06445 C 364.83014 181.59147 367.72294 182.92752 371.44141 185.07422 C 370.70812 183.72436 370.05091 182.50688 369.42578 181.34766 C 368.44125 180.58465 367.41499 179.59278 365.32031 178.51758 C 366.76012 178.89175 367.79217 179.32422 368.5957 179.80664 C 362.24105 167.97483 361.72787 166.40111 359.54883 161.28711 z M 15.798828 192.53711 C 14.739963 195.13289 14.096505 196.83476 12.917969 199.35352 C 13.640478 200.11951 14.529777 201.00808 15.970703 202.01562 C 14.421626 201.37825 13.365579 200.74031 12.576172 200.07617 C 11.067604 203.2241 8.7025309 207.70614 3.90625 216.32422 C 7.6748887 214.1485 10.595573 212.80709 13.318359 212.29492 C 13.201648 211.79285 13.140071 211.24647 13.144531 210.67969 L 13.148438 210.56055 C 13.208267 208.1455 14.464626 206.28809 15.953125 206.41406 C 17.441254 206.53992 18.5989 208.6002 18.539062 211.01562 C 18.527346 211.47057 18.476256 211.90861 18.386719 212.31445 C 21.080139 212.84147 23.972945 214.17752 27.691406 216.32422 C 26.958121 214.97436 26.300911 213.75688 25.675781 212.59766 C 24.691252 211.83465 23.664987 210.84278 21.570312 209.76758 C 23.010124 210.14175 24.042172 210.57422 24.845703 211.05664 C 18.491051 199.22483 17.977873 197.65111 15.798828 192.53711 z M 78.298828 192.53711 C 77.239963 195.13289 76.596505 196.83476 75.417969 199.35352 C 76.140478 200.11951 77.029777 201.00808 78.470703 202.01562 C 76.921626 201.37825 75.865579 200.74031 75.076172 200.07617 C 73.567604 203.2241 71.202531 207.70614 66.40625 216.32422 C 70.174889 214.1485 73.095573 212.80709 75.818359 212.29492 C 75.701648 211.79285 75.640071 211.24647 75.644531 210.67969 L 75.648438 210.56055 C 75.708267 208.1455 76.964626 206.28809 78.453125 206.41406 C 79.941254 206.53992 81.0989 208.6002 81.039062 211.01562 C 81.027346 211.47057 80.976256 211.90861 80.886719 212.31445 C 83.580139 212.84147 86.472945 214.17752 90.191406 216.32422 C 89.458121 214.97436 88.800911 213.75688 88.175781 212.59766 C 87.191252 211.83465 86.164987 210.84278 84.070312 209.76758 C 85.510124 210.14175 86.542172 210.57422 87.345703 211.05664 C 80.991051 199.22483 80.477873 197.65111 78.298828 192.53711 z M 140.79883 192.53711 C 139.73996 195.13289 139.0965 196.83476 137.91797 199.35352 C 138.64048 200.11951 139.52978 201.00808 140.9707 202.01562 C 139.42163 201.37825 138.36558 200.74031 137.57617 200.07617 C 136.0676 203.2241 133.70253 207.70614 128.90625 216.32422 C 132.67489 214.1485 135.59557 212.80709 138.31836 212.29492 C 138.20165 211.79285 138.14007 211.24647 138.14453 210.67969 L 138.14844 210.56055 C 138.20827 208.1455 139.46463 206.28809 140.95312 206.41406 C 142.44125 206.53992 143.5989 208.6002 143.53906 211.01562 C 143.52735 211.47057 143.47626 211.90861 143.38672 212.31445 C 146.08014 212.84147 148.97294 214.17752 152.69141 216.32422 C 151.95812 214.97436 151.30286 213.75688 150.67773 212.59766 C 149.69321 211.83465 148.66499 210.84278 146.57031 209.76758 C 148.01012 210.14175 149.04217 210.57422 149.8457 211.05664 C 143.49105 199.22483 142.97787 197.65111 140.79883 192.53711 z M 172.04883 192.53711 C 170.98996 195.13289 170.3465 196.83476 169.16797 199.35352 C 169.89048 200.11951 170.77978 201.00808 172.2207 202.01562 C 170.67163 201.37825 169.61558 200.74031 168.82617 200.07617 C 167.3176 203.2241 164.95253 207.70614 160.15625 216.32422 C 163.92489 214.1485 166.84557 212.80709 169.56836 212.29492 C 169.45165 211.79285 169.39007 211.24647 169.39453 210.67969 L 169.39844 210.56055 C 169.45827 208.1455 170.71463 206.28809 172.20312 206.41406 C 173.69125 206.53992 174.8489 208.6002 174.78906 211.01562 C 174.77735 211.47057 174.72626 211.90861 174.63672 212.31445 C 177.33014 212.84147 180.22294 214.17752 183.94141 216.32422 C 183.20812 214.97436 182.55091 213.75688 181.92578 212.59766 C 180.94125 211.83465 179.91499 210.84278 177.82031 209.76758 C 179.26012 210.14175 180.29217 210.57422 181.0957 211.05664 C 174.74105 199.22483 174.22787 197.65111 172.04883 192.53711 z M 297.04883 192.53711 C 295.98996 195.13289 295.3465 196.83476 294.16797 199.35352 C 294.89048 200.11951 295.77978 201.00808 297.2207 202.01562 C 295.67163 201.37825 294.61558 200.74031 293.82617 200.07617 C 292.3176 203.2241 289.95253 207.70614 285.15625 216.32422 C 288.92489 214.1485 291.84557 212.80709 294.56836 212.29492 C 294.45165 211.79285 294.39007 211.24647 294.39453 210.67969 L 294.39844 210.56055 C 294.45827 208.1455 295.71463 206.28809 297.20312 206.41406 C 298.69125 206.53992 299.8489 208.6002 299.78906 211.01562 C 299.77735 211.47057 299.72626 211.90861 299.63672 212.31445 C 302.33014 212.84147 305.22294 214.17752 308.94141 216.32422 C 308.20812 214.97436 307.55286 213.75688 306.92773 212.59766 C 305.94321 211.83465 304.91499 210.84278 302.82031 209.76758 C 304.26012 210.14175 305.29217 210.57422 306.0957 211.05664 C 299.74105 199.22483 299.22787 197.65111 297.04883 192.53711 z M 390.79883 192.53711 C 389.73996 195.13289 389.0965 196.83476 387.91797 199.35352 C 388.64046 200.11951 389.52976 201.00808 390.9707 202.01562 C 389.42163 201.37825 388.3656 200.74031 387.57617 200.07617 C 386.06761 203.2241 383.70255 207.70614 378.90625 216.32422 C 382.67489 214.1485 385.59559 212.80709 388.31836 212.29492 C 388.20157 211.79285 388.14 211.24647 388.14453 210.67969 L 388.14844 210.56055 C 388.20815 208.1455 389.4646 206.28809 390.95312 206.41406 C 392.44124 206.53992 393.59889 208.6002 393.53906 211.01562 C 393.52772 211.47057 393.47629 211.90861 393.38672 212.31445 C 396.08012 212.84147 398.97296 214.17752 402.69141 216.32422 C 401.95814 214.97436 401.30287 213.75688 400.67773 212.59766 C 399.69321 211.83465 398.665 210.84278 396.57031 209.76758 C 398.01012 210.14175 399.04218 210.57422 399.8457 211.05664 C 393.49103 199.22483 392.97788 197.65111 390.79883 192.53711 z M 422.04883 192.53711 C 420.98996 195.13289 420.3465 196.83476 419.16797 199.35352 C 419.89046 200.11951 420.77976 201.00808 422.2207 202.01562 C 420.67163 201.37825 419.6156 200.74031 418.82617 200.07617 C 417.31761 203.2241 414.95255 207.70614 410.15625 216.32422 C 413.92489 214.1485 416.84559 212.80709 419.56836 212.29492 C 419.45157 211.79285 419.39 211.24647 419.39453 210.67969 L 419.39844 210.56055 C 419.45815 208.1455 420.7146 206.28809 422.20312 206.41406 C 423.69124 206.53992 424.84889 208.6002 424.78906 211.01562 C 424.77772 211.47057 424.72629 211.90861 424.63672 212.31445 C 427.33012 212.84147 430.22296 214.17752 433.94141 216.32422 C 433.20814 214.97436 432.55287 213.75688 431.92773 212.59766 C 430.94321 211.83465 429.915 210.84278 427.82031 209.76758 C 429.26012 210.14175 430.29218 210.57422 431.0957 211.05664 C 424.74103 199.22483 424.22788 197.65111 422.04883 192.53711 z M 484.54883 192.53711 C 483.48996 195.13289 482.8465 196.83476 481.66797 199.35352 C 482.39046 200.11951 483.27976 201.00808 484.7207 202.01562 C 483.17163 201.37825 482.1156 200.74031 481.32617 200.07617 C 479.81761 203.2241 477.45255 207.70614 472.65625 216.32422 C 476.42489 214.1485 479.34559 212.80709 482.06836 212.29492 C 481.95157 211.79285 481.89 211.24647 481.89453 210.67969 L 481.89844 210.56055 C 481.95815 208.1455 483.2146 206.28809 484.70312 206.41406 C 486.19124 206.53992 487.34889 208.6002 487.28906 211.01562 C 487.27772 211.47057 487.22629 211.90861 487.13672 212.31445 C 489.83012 212.84147 492.72296 214.17752 496.44141 216.32422 C 495.70814 214.97436 495.05287 213.75688 494.42773 212.59766 C 493.44321 211.83465 492.415 210.84278 490.32031 209.76758 C 491.76012 210.14175 492.79218 210.57422 493.5957 211.05664 C 487.24103 199.22483 486.72788 197.65111 484.54883 192.53711 z M 78.298828 223.78711 C 77.239963 226.38289 76.596505 228.08476 75.417969 230.60352 C 76.140478 231.36951 77.029777 232.25808 78.470703 233.26562 C 76.921626 232.62825 75.865579 231.99031 75.076172 231.32617 C 73.567604 234.4741 71.202531 238.95614 66.40625 247.57422 C 70.174889 245.3985 73.095573 244.05709 75.818359 243.54492 C 75.701648 243.04285 75.640071 242.49647 75.644531 241.92969 L 75.648438 241.81055 C 75.708267 239.3955 76.964626 237.53809 78.453125 237.66406 C 79.941254 237.78992 81.0989 239.8502 81.039062 242.26562 C 81.027346 242.72057 80.976256 243.15861 80.886719 243.56445 C 83.580139 244.09147 86.472945 245.42752 90.191406 247.57422 C 89.458121 246.22436 88.800911 245.00688 88.175781 243.84766 C 87.191252 243.08465 86.164987 242.09278 84.070312 241.01758 C 85.510124 241.39175 86.542172 241.82422 87.345703 242.30664 C 80.991051 230.47483 80.477873 228.90111 78.298828 223.78711 z M 109.54883 223.78711 C 108.48996 226.38289 107.8465 228.08476 106.66797 230.60352 C 107.39048 231.36951 108.27978 232.25808 109.7207 233.26562 C 108.17163 232.62825 107.11558 231.99031 106.32617 231.32617 C 104.8176 234.4741 102.45253 238.95614 97.65625 247.57422 C 101.42489 245.3985 104.34557 244.05709 107.06836 243.54492 C 106.95165 243.04285 106.89007 242.49647 106.89453 241.92969 L 106.89844 241.81055 C 106.95827 239.3955 108.21463 237.53809 109.70312 237.66406 C 111.19125 237.78992 112.3489 239.8502 112.28906 242.26562 C 112.27735 242.72057 112.22626 243.15861 112.13672 243.56445 C 114.83014 244.09147 117.72294 245.42752 121.44141 247.57422 C 120.70812 246.22436 120.05091 245.00688 119.42578 243.84766 C 118.44125 243.08465 117.41499 242.09278 115.32031 241.01758 C 116.76012 241.39175 117.79217 241.82422 118.5957 242.30664 C 112.24105 230.47483 111.72787 228.90111 109.54883 223.78711 z "
       transform="matrix(0.26458333,0,0,0.26458333,0,232.13776)"
       id="path940" />
  </g>
</svg>
